<svg id="Ebene_3" data-name="Ebene 3" xmlns="http://www.w3.org/2000/svg" viewBox="0 0 48 48"><title>icons_grasbrook_streets</title><rect x="29.26" y="24.61" width="4.01" height="14.03"/><rect x="40.33" y="24.61" width="4.01" height="10.02"/><rect x="35.28" y="24.61" width="3.01" height="20.05"/><path d="M41.82,17.45H31.74a10.87,10.87,0,0,0-3.61,1.6l1.22,2.75a7.2,7.2,0,0,1,3.09-1.37h3.34v2h2v-2h3.34a7.2,7.2,0,0,1,3.09,1.37l1.22-2.75A10.87,10.87,0,0,0,41.82,17.45Z"/><path d="M43.65,15.43H29.86c0-2.92,3.09-4,6.89-4S43.65,12.55,43.65,15.43Z"/><circle cx="36.76" cy="5.53" r="4.01"/><path d="M18.82,22.35a14.28,14.28,0,0,0,7.12,2.22v-4A8.47,8.47,0,0,1,19.46,18a20.25,20.25,0,0,1-4-5.1c-.81-1.47-1.67-2.26-2.84-2.26a14,14,0,0,0-6.06,1.71C4.91,13.14,0,15.2,0,15.2v9.38H4v-7S7.42,16,7.73,15.93L2,44.5l4.1.09L9.56,28,14,32.27V44.5h4V29.59l-4.3-4.29,1.37-6.22A15.29,15.29,0,0,0,18.82,22.35Z"/><circle cx="14.69" cy="5.53" r="4.01"/></svg>