<svg xmlns="http://www.w3.org/2000/svg" viewBox="0 0 24 24"><title>icons_grasbrook_child</title><g id="Ebene_3" data-name="Ebene 3"><path d="M10.57,13.19a5,5,0,0,0,2.49.78v-1.4a3,3,0,0,1-2.26-.9A7.07,7.07,0,0,1,9.4,9.88c-.28-.51-.58-.79-1-.79a4.87,4.87,0,0,0-2.11.6c-.58.28-2.29,1-2.29,1V14H5.4V11.53s1.19-.55,1.3-.58l-2,10,1.43,0,1.21-5.8,1.56,1.5v4.27h1.4V15.71l-1.5-1.5L9.28,12A5.34,5.34,0,0,0,10.57,13.19Z"/><circle cx="9.13" cy="7.31" r="1.4"/><path d="M18.23,15.4A3.56,3.56,0,0,0,20,16V15a2.11,2.11,0,0,1-1.61-.65,5.05,5.05,0,0,1-1-1.27c-.2-.37-.42-.56-.71-.56a3.48,3.48,0,0,0-1.51.43c-.41.2-1.64.71-1.64.71V16h1V14.22l.93-.42L14,20.93l1,0,.86-4.14L17,17.88v3.05h1V17.21L17,16.14l.34-1.55A3.81,3.81,0,0,0,18.23,15.4Z"/><circle cx="17.2" cy="11.21" r="1"/></g></svg>