<svg id="Ebene_3" data-name="Ebene 3" xmlns="http://www.w3.org/2000/svg" viewBox="0 0 24 24"><title>icons_grasbrook_streets</title><path d="M9.39,11.1a7.12,7.12,0,0,0,3.55,1.11v-2A4.22,4.22,0,0,1,9.71,8.92a10.1,10.1,0,0,1-2-2.54c-.4-.73-.83-1.12-1.42-1.12a7,7,0,0,0-3,.85C2.45,6.5,0,7.53,0,7.53v4.68H2V8.73s1.7-.78,1.86-.83L1,22.14l2,0L4.77,13.9,7,16v6.1H9V14.71L6.86,12.57l.68-3.1A7.63,7.63,0,0,0,9.39,11.1Z"/><circle cx="7.33" cy="2.71" r="2"/><path d="M22,11.45C22,11.22,19.87,5,19.87,5a1.07,1.07,0,0,0-1-.87h-.15l-8.59,0L8.62,5.68H18.5L20,10.19H13.94v3h-1a8.16,8.16,0,0,1-4.08-1.26,8.61,8.61,0,0,1-.73-.51l-.18.81L9.71,14l.29.29v3.9h9s0,0,0,0v.89a1.06,1.06,0,0,0,1.06,1.05h.89A1.06,1.06,0,0,0,22,19.12v-.89s0,0,0,0h0Zm-3.5,3.74a1.5,1.5,0,1,1,1.5-1.5A1.5,1.5,0,0,1,18.5,15.19Z"/></svg>