<svg id="Ebene_3" data-name="Ebene 3" xmlns="http://www.w3.org/2000/svg" viewBox="0 0 48 48"><title>icons_grasbrook_streets</title><path d="M48,30.4c0-.45-4.26-12.83-4.26-12.83a2.13,2.13,0,0,0-2.09-1.74h-.29l-23.22,0a2.12,2.12,0,0,0-1.88,1.72S12,30,12,30.4V43.88h0s0,.06,0,.09v1.78a2.11,2.11,0,0,0,2.11,2.11h1.78A2.11,2.11,0,0,0,18,45.76V44s0-.06,0-.09H42s0,.06,0,.09v1.78a2.11,2.11,0,0,0,2.11,2.11h1.78A2.11,2.11,0,0,0,48,45.76V44s0-.06,0-.09h0ZM19,18.87H41l3,9H16Zm0,19a3,3,0,1,1,3-3A3,3,0,0,1,19,37.88Zm22,0a3,3,0,1,1,3-3A3,3,0,0,1,41,37.88Z"/><path d="M31.74,1.74A2.13,2.13,0,0,0,29.65,0h-.29L6.13,0A2.12,2.12,0,0,0,4.25,1.77S0,14.11,0,14.57V28H0s0,.06,0,.09v1.78A2.11,2.11,0,0,0,2.11,32H3.89A2.11,2.11,0,0,0,6,29.92V28.14s0-.06,0-.09h4.64c.56-1.77,1.63-5,3.7-11a4.1,4.1,0,0,1,3.61-3.18h.2l17.67,0C35,11.13,31.74,1.74,31.74,1.74ZM8,19.61H2v-4H8ZM4,12,7,3H29l3,9Z"/></svg>