<svg id="Ebene_3" data-name="Ebene 3" xmlns="http://www.w3.org/2000/svg" viewBox="0 0 48 48"><title>icons_grasbrook_streets</title><path d="M38.63,36.73s0,.06,0,.1v1.79a2.12,2.12,0,0,0,2.12,2.12h1.79a2.12,2.12,0,0,0,2.12-2.12V36.82s0-.06,0-.1h0V23.2c0-.45-4.28-12.87-4.28-12.87a2.14,2.14,0,0,0-2.1-1.74H17.16l2.06,3h18.4l3,9H22.48l-.88,2v14m16-6a3,3,0,1,1,3-3A3,3,0,0,1,37.61,30.71Z"/><rect x="4.5" y="24.66" width="4.01" height="14.04"/><rect x="15.58" y="24.66" width="4.01" height="10.03"/><rect x="10.52" y="24.66" width="3.01" height="20.06"/><path d="M17.07,17.49H7a10.88,10.88,0,0,0-3.61,1.6l1.22,2.75a7.2,7.2,0,0,1,3.09-1.37H11v2h2v-2h3.35a7.2,7.2,0,0,1,3.09,1.37l1.22-2.75A10.88,10.88,0,0,0,17.07,17.49Z"/><path d="M18.9,15.47H5.1c0-2.92,3.09-4,6.9-4S18.9,12.58,18.9,15.47Z"/><circle cx="12" cy="5.56" r="4.01"/></svg>